PathFileType	4	(X/Y/Z)	C:/Users/opensim2020/Desktop/walking_exp_matlab/subject03_walking05_straight_04.trc	
DataRate	CameraRate	NumFrames	NumMarkers	Units	OrigDataRate	OrigDataStartFrame	OrigNumFrames	
100.00	100.00	4	45	mm	100.00	2928	294	
Frame#	Time	LFHD			RFHD			LBHD			RBHD			C7			T10			CLAV			STRN			RBAK			LSHO			LUPA			LELB			LFRM			LWRA			LWRB			LFIN			RSHO			RUPA			RELB			RFRM			RWRA			RWRB			RFIN			LASI			RASI			LPSI			RPSI			LTHI			LKNE			LTIB			LANK			LHEE			LTOE			RTHI			RKNE			RTIB			RANK			RHEE			RTOE			*39			*40			*41			*42			*43			*44			
		X1	Y1	Z1	X2	Y2	Z2	X3	Y3	Z3	X4	Y4	Z4	X5	Y5	Z5	X6	Y6	Z6	X7	Y7	Z7	X8	Y8	Z8	X9	Y9	Z9	X10	Y10	Z10	X11	Y11	Z11	X12	Y12	Z12	X13	Y13	Z13	X14	Y14	Z14	X15	Y15	Z15	X16	Y16	Z16	X17	Y17	Z17	X18	Y18	Z18	X19	Y19	Z19	X20	Y20	Z20	X21	Y21	Z21	X22	Y22	Z22	X23	Y23	Z23	X24	Y24	Z24	X25	Y25	Z25	X26	Y26	Z26	X27	Y27	Z27	X28	Y28	Z28	X29	Y29	Z29	X30	Y30	Z30	X31	Y31	Z31	X32	Y32	Z32	X33	Y33	Z33	X34	Y34	Z34	X35	Y35	Z35	X36	Y36	Z36	X37	Y37	Z37	X38	Y38	Z38	X39	Y39	Z39	X40	Y40	Z40	X41	Y41	Z41	X42	Y42	Z42	X43	Y43	Z43	X44	Y44	Z44	X45	Y45	Z45	

74	0.730	1492.23376	925.59161	1613.96521	1361.85229	953.04694	1614.53052	1516.16870	1055.44031	1581.91455	1386.78125	1077.25500	1581.77368	1461.32153	1109.48267	1417.16003	1463.58899	1136.76147	1099.99927	1448.17859	987.95862	1341.64917	1449.85718	936.93988	1179.79822	1370.58740	1167.01050	1236.04578	1607.43713	1020.51440	1377.00403	1682.65857	995.07898	1186.18152	1699.03394	955.46777	1071.80603	1695.09509	868.91199	977.84015	1659.62927	786.27344	897.64056	1705.99609	810.37299	880.58899	1696.33630	744.56635	831.76105	1293.12195	1050.17334	1363.73950	1228.68848	1052.73267	1137.72485	1218.92810	1040.55835	1024.99927	1217.60815	1032.92419	888.12427	1251.76697	1006.11719	790.57709	1209.94470	1041.64319	787.77350	1222.40344	1026.78772	713.97028	1568.27234	960.94299	935.45367	1331.31323	972.66772	944.79907	1525.06494	1124.56616	958.71759	1377.10852	1132.48547	969.45947	1619.20496	1046.83630	637.65112	1600.21729	1077.30383	459.36191	1606.02026	1224.30481	318.58719	1571.80969	1356.07190	153.36462	1535.55273	1407.45361	152.39461	1528.57751	1266.97681	33.10672	1291.79468	990.07843	649.86670	1328.90894	937.93640	476.80899	1326.91528	946.58948	287.08615	1374.42358	920.88245	72.63358	1427.80469	958.39191	39.50310	1387.91675	775.34094	39.01828	1457.15686	1011.04706	1680.60901															 
75	0.740	1491.43091	916.00677	1615.55725	1360.96106	943.33752	1616.15601	1515.21509	1045.94543	1583.76685	1385.79565	1067.57495	1583.61060	1459.70837	1099.68481	1418.56946	1461.96912	1126.32556	1101.67688	1447.22278	978.00061	1343.60840	1449.09705	926.42438	1181.93774	1368.57458	1156.14990	1237.98547	1606.10852	1011.66821	1379.42163	1680.16724	986.90442	1187.90295	1696.05884	949.01715	1073.19299	1692.83386	864.09906	977.73279	1657.79663	782.62238	895.89685	1704.08899	807.32489	879.36230	1694.71228	742.46729	829.03961	1292.00403	1039.33228	1366.11536	1227.26514	1041.21692	1140.42517	1217.93433	1028.50757	1027.79785	1216.63538	1020.63037	890.95215	1251.06360	994.37872	793.32373	1208.62000	1029.13623	790.57996	1221.63428	1014.69330	716.56976	1566.68958	950.43170	937.42322	1330.27747	961.67590	947.37531	1523.58044	1113.76050	960.57361	1375.70789	1121.26880	971.88794	1619.25635	1031.93298	637.93512	1601.11206	1058.11133	458.90106	1606.04761	1207.71826	321.32748	1571.61548	1343.58411	160.18135	1534.52515	1394.29370	162.91982	1528.96338	1265.48743	33.47857	1290.31482	981.16949	651.42346	1327.20154	932.64301	477.40576	1325.31323	943.61273	287.60165	1374.09473	920.83453	72.59204	1427.37964	958.54041	39.55344	1387.83789	775.44171	38.95101	1456.12585	1001.30322	1682.32751															 
76	0.750	1490.61169	906.57367	1616.92529	1360.15173	933.71619	1617.60583	1514.25793	1036.51758	1585.22681	1384.90686	1058.03784	1585.13293	1458.19019	1089.99512	1419.69165	1460.16846	1115.95325	1103.08911	1446.34497	967.92645	1345.24207	1448.22266	915.49823	1183.68323	1366.38806	1145.11951	1239.63586	1604.72192	1002.77087	1381.45044	1678.04846	978.93048	1189.64917	1693.34155	942.89838	1074.45117	1690.66931	859.45917	977.37201	1656.29932	778.99194	894.10150	1702.23584	804.62012	877.88715	1693.13098	740.70416	825.81573	1291.01257	1028.57849	1368.43323	1225.72815	1029.71387	1142.87280	1216.71094	1016.54254	1030.28796	1215.47913	1008.10632	893.57458	1250.27161	982.12848	796.05884	1207.33105	1016.31348	793.13611	1220.52246	1002.50159	718.97980	1565.30286	940.14001	939.08331	1329.14978	950.82434	949.35510	1522.05786	1103.36975	962.23267	1374.19238	1110.16577	973.91333	1619.14221	1016.92102	637.81696	1601.30542	1038.44958	457.89114	1605.67004	1190.00916	323.58981	1571.24365	1329.42627	165.97818	1534.28674	1379.86987	173.16159	1530.56287	1262.08643	34.83791	1289.11621	972.97552	652.55023	1326.01611	927.40106	477.70004	1324.22473	939.98022	287.99857	1373.70642	920.86542	72.75893	1426.95984	958.64801	39.58473	1387.87268	775.41748	38.84077	1455.54395	991.64886	1683.91406															 
77	0.760	1489.92786	897.28174	1618.04272	1359.42712	924.16705	1618.60315	1513.38196	1027.25024	1586.29773	1383.98120	1048.57629	1586.27673	1456.86279	1080.52954	1420.70300	1458.29504	1105.71948	1104.24060	1445.48706	957.94049	1346.43835	1447.71777	905.15497	1185.07813	1364.17383	1134.24048	1241.25745	1603.38721	993.99670	1383.10840	1676.29199	971.20203	1191.24585	1690.78455	936.83917	1075.17871	1688.78455	855.05347	976.76624	1654.89514	775.41864	891.81604	1700.54932	801.87311	876.08405	1691.56604	739.24969	822.04431	1290.01697	1017.58099	1370.15125	1224.00391	1018.25415	1145.01843	1215.17822	1004.60260	1032.50378	1214.17700	995.48608	895.79840	1249.53723	969.77173	798.31616	1206.02075	1003.08643	795.29919	1219.42517	989.61804	720.91235	1563.35229	930.64893	940.60144	1328.06665	940.12115	950.69507	1520.51917	1093.30872	963.49060	1372.63037	1099.22253	975.53009	1618.82263	1002.02905	637.29169	1601.59949	1018.84058	457.14917	1605.39368	1171.84265	325.50842	1571.36890	1315.07568	172.61710	1533.97009	1364.83228	182.48088	1532.17517	1254.66040	37.84318	1288.01514	965.20490	653.17517	1325.15906	921.96912	477.69244	1323.63086	936.64105	288.26462	1373.55249	920.72589	72.65584	1426.76489	958.76825	39.57837	1388.09973	775.36432	38.65912	1454.87817	982.22656	1685.11145															 
